<svg width="150" height="51" viewBox="0 0 150 51" fill="none" xmlns="http://www.w3.org/2000/svg">
<path fill-rule="evenodd" clip-rule="evenodd" d="M32.2652 10.4558C31.655 11.154 31.2179 12.1132 31.0449 13.1605L34.0986 12.8994L32.2682 10.4589L32.2652 10.4558ZM35.4039 8.88646C34.3566 8.97449 33.4854 9.40857 32.6992 10.1067L35.0548 11.9372L35.4039 8.88342V8.88646ZM30.7808 13.1605C30.8688 12.0252 31.3909 11.066 32.0891 10.2828L30.8688 8.71343L32.4382 9.93372C33.2244 9.23554 34.2686 8.71343 35.4039 8.6254L35.926 3.6532C30.3437 3.6532 25.8966 8.10025 25.8966 13.5946L30.7808 13.1574V13.1605Z" fill="#E1CE7A"/>
<path fill-rule="evenodd" clip-rule="evenodd" d="M32.2644 16.9094C31.6543 16.2112 31.2171 15.252 31.0441 14.2047L34.0979 14.5538L32.2674 16.9094H32.2644ZM35.4031 18.4787C34.3559 18.3907 33.4847 17.9566 32.6985 17.2585L35.0541 15.428L35.4031 18.4818V18.4787ZM30.78 14.2047C30.8681 15.34 31.3902 16.2992 32.0883 17.0824L30.9531 18.5637L32.4344 17.4284C33.2206 18.1266 34.2648 18.6487 35.4001 18.7368L35.9222 23.709C30.3399 23.709 25.8928 19.2619 25.8928 13.7676L30.777 14.2047H30.78Z" fill="#10C0E7"/>
<path fill-rule="evenodd" clip-rule="evenodd" d="M39.5889 16.9094C40.1991 16.2112 40.6362 15.252 40.8092 14.2047L37.7555 14.4658L39.5859 16.9063L39.5889 16.9094ZM36.4502 18.4787C37.4974 18.3907 38.3686 17.9566 39.1548 17.2584L36.7993 15.428L36.4502 18.4818V18.4787ZM41.0733 14.2047C40.9853 15.34 40.4632 16.2992 39.765 17.0824L40.9853 18.6518L39.4159 17.5165C38.6297 18.2146 37.5855 18.7367 36.4502 18.8248L36.0131 23.7089C41.5074 23.7089 45.9544 19.1739 46.0425 13.6796L41.0703 14.2017L41.0733 14.2047Z" fill="#185C55"/>
<path d="M147.38 31.2978H56.9731C55.5263 31.2978 54.3534 32.4706 54.3534 33.9174V47.7412C54.3534 49.188 55.5263 50.3609 56.9731 50.3609H147.38C148.827 50.3609 150 49.188 150 47.7412V33.9174C150 32.4706 148.827 31.2978 147.38 31.2978Z" fill="#185C55"/>
<path d="M0 26.6777V0.441605H4.21332V26.6777H0ZM9.6196 12.7234L21.7041 26.6777H16.4951L4.33171 12.7234L15.3446 0.441605H20.5111L9.6196 12.7234Z" fill="black"/>
<path d="M22.3015 13.5582C22.2469 9.82141 23.5856 6.61589 26.3175 3.93855C29.0465 1.26121 32.2915 -0.0501387 36.0555 0.00146537C39.7923 -0.0501387 43.0464 1.26121 45.8148 3.93552C48.5832 6.61286 49.9279 9.81838 49.849 13.5551C49.9279 17.2919 48.5832 20.4974 45.8148 23.1747C43.0464 25.8521 39.7923 27.1634 36.0555 27.1088C32.2915 27.1604 29.0404 25.849 26.2963 23.1747C23.5522 20.4974 22.2226 17.2919 22.3015 13.5551V13.5582ZM45.5173 13.5187C45.5173 10.7624 44.6157 8.46453 42.8126 6.62196C41.0095 4.77939 38.7723 3.85963 36.095 3.85963C33.4177 3.85963 31.1471 4.77332 29.3561 6.60375C27.5682 8.43114 26.6727 10.7381 26.6727 13.5217C26.6727 16.3053 27.5591 18.6579 29.3349 20.4974C31.1107 22.34 33.363 23.2597 36.092 23.2597C38.8209 23.2597 41.0065 22.3339 42.8096 20.4761C44.6127 18.6214 45.5143 16.3023 45.5143 13.5187H45.5173Z" fill="black"/>
<path d="M78.3926 0.00146484H79.8224V26.6777H75.609V10.2191L68.0961 20.0785H66.6664L59.114 10.1796V26.6777H54.9006V0.00146484H56.3729L67.3858 14.6692L78.3926 0.00146484Z" fill="black"/>
<path d="M86.426 26.6777V0.441605H96.0062C98.6562 0.441605 100.802 1.19138 102.448 2.6879C104.09 4.18442 104.912 6.11198 104.912 8.47059C104.912 10.8292 104.084 12.7628 102.429 14.2745C100.772 15.7862 98.6319 16.539 96.0092 16.539H90.6424V26.6747H86.4291L86.426 26.6777ZM90.6393 12.8053H95.9272C97.3843 12.8053 98.5257 12.4229 99.3453 11.6518C100.168 10.8838 100.578 9.83658 100.578 8.51005C100.578 7.18352 100.168 6.13019 99.3453 5.35006C98.5226 4.56993 97.3843 4.17835 95.9272 4.17835H90.6393V12.8053Z" fill="black"/>
<path d="M124.032 26.6777L122.162 22.3035H110.357L108.487 26.6777H103.995L115.563 0.00146484H116.993L128.561 26.6747H124.029L124.032 26.6777ZM120.654 18.6882L116.279 7.83617L111.866 18.6882H120.651H120.654Z" fill="black"/>
<path d="M130.671 21.4293L133.652 19.1648C135.561 21.9484 137.853 23.3386 140.53 23.3386C141.881 23.3386 142.974 23.0078 143.808 22.346C144.643 21.6843 145.062 20.7949 145.062 19.6839C145.062 18.7823 144.783 18.075 144.227 17.556C143.672 17.0399 142.664 16.4358 141.207 15.7468L138.305 14.396C136.265 13.4671 134.732 12.4411 133.712 11.3149C132.692 10.1887 132.182 8.78933 132.182 7.11979C132.182 5.02527 132.978 3.31627 134.568 1.99277C136.156 0.666246 138.117 0.00146484 140.448 0.00146484C142.275 0.00146484 143.939 0.426439 145.439 1.27335C146.935 2.1233 148.095 3.26163 148.917 4.69136L145.976 6.95587C144.546 4.83707 142.704 3.77463 140.451 3.77463C139.285 3.77463 138.329 4.0539 137.589 4.6094C136.845 5.16491 136.475 5.94807 136.475 6.95587C136.502 7.43245 136.56 7.82403 136.654 8.12759C136.748 8.43114 136.991 8.74987 137.388 9.08074C137.786 9.41162 138.065 9.61803 138.223 9.69696C138.381 9.77588 138.9 10.043 139.774 10.4923C139.932 10.5712 140.053 10.638 140.132 10.6896L143.074 12.0404C145.275 13.0482 146.871 14.1197 147.864 15.2611C148.857 16.3994 149.354 17.82 149.354 19.5139C149.354 21.7662 148.526 23.5967 146.871 24.9991C145.214 26.4045 143.113 27.1057 140.57 27.1057C138.448 27.1057 136.529 26.6018 134.805 25.594C133.081 24.5862 131.706 23.196 130.671 21.4202V21.4293Z" fill="black"/>
<path d="M62.4775 45.656V35.9999H68.8248V37.3902H64.0256V39.8611H67.6379V41.2059H64.0256V44.2627H68.9978V45.6529H62.4745L62.4775 45.656Z" fill="white"/>
<path d="M70.8004 45.656V35.9999H73.8299C75.3992 35.9999 76.6681 36.4431 77.6334 37.3325C78.5987 38.2189 79.0813 39.3815 79.0813 40.8143C79.0813 42.2471 78.5957 43.3884 77.6273 44.2961C76.656 45.2037 75.3901 45.656 73.8299 45.656H70.8004ZM72.3516 44.2657H73.8147C74.9257 44.2657 75.8151 43.947 76.4829 43.3065C77.1507 42.669 77.4847 41.8373 77.4847 40.8113C77.4847 39.7852 77.1538 38.9505 76.489 38.3312C75.8242 37.712 74.9348 37.4024 73.8117 37.4024H72.3485V44.2627L72.3516 44.2657Z" fill="white"/>
<path d="M80.8204 41.7523V36.003H82.3716V41.8555C82.3716 42.6538 82.5932 43.2791 83.0364 43.7284C83.4796 44.1777 84.0684 44.4023 84.8 44.4023C85.5316 44.4023 86.1023 44.1777 86.5394 43.7284C86.9795 43.2791 87.1981 42.6568 87.1981 41.8555V36.003H88.7492V41.7523C88.7492 42.9999 88.3819 43.9894 87.6443 44.721C86.9067 45.4526 85.9596 45.8168 84.8 45.8168C83.6404 45.8168 82.663 45.4526 81.9254 44.721C81.1877 43.9894 80.8204 42.9999 80.8204 41.7523Z" fill="white"/>
<path d="M90.4897 40.8295C90.4594 39.4544 90.9542 38.2735 91.968 37.29C92.9819 36.3065 94.1809 35.8239 95.5651 35.8421C96.4424 35.8421 97.2468 36.0424 97.9784 36.4431C98.7099 36.8438 99.2837 37.3841 99.7056 38.0671L98.5339 38.9292C97.8205 37.8182 96.837 37.2627 95.5803 37.2627C94.5846 37.2627 93.7559 37.6027 93.0942 38.2796C92.4294 38.9565 92.0985 39.8095 92.0985 40.8325C92.0985 41.8555 92.4294 42.7085 93.0942 43.3854C93.7559 44.0623 94.5877 44.4023 95.5803 44.4023C96.837 44.4023 97.8236 43.8468 98.5339 42.7358L99.7056 43.5979C99.2867 44.29 98.713 44.8333 97.9875 45.2279C97.262 45.6226 96.4545 45.8199 95.5651 45.8199C94.1809 45.8381 92.9819 45.3554 91.968 44.3719C90.9542 43.3884 90.4624 42.2076 90.4897 40.8325V40.8295Z" fill="white"/>
<path d="M107.898 45.656L107.212 44.0472H102.868L102.182 45.656H100.528L104.784 35.8391H105.309L109.564 45.656H107.898ZM106.653 42.7146L105.045 38.7198L103.421 42.7146H106.653Z" fill="white"/>
<path d="M112.27 45.656V37.3902H109.022V35.9999H117.081V37.3902H113.818V45.656H112.267H112.27Z" fill="white"/>
<path d="M118.531 45.656V35.9999H120.083V45.656H118.531Z" fill="white"/>
<path d="M121.925 40.8295C121.907 39.4544 122.399 38.2735 123.404 37.29C124.408 36.3065 125.601 35.8239 126.989 35.8421C128.364 35.8239 129.56 36.3065 130.58 37.29C131.6 38.2766 132.094 39.4544 132.064 40.8295C132.094 42.2046 131.6 43.3854 130.58 44.3689C129.56 45.3554 128.364 45.8351 126.989 45.8168C125.604 45.8351 124.405 45.3524 123.398 44.3689C122.387 43.3854 121.898 42.2046 121.928 40.8295H121.925ZM130.467 40.8143C130.467 39.8004 130.137 38.9535 129.472 38.2766C128.807 37.5997 127.984 37.2597 127.001 37.2597C126.017 37.2597 125.18 37.5966 124.521 38.2705C123.862 38.9444 123.534 39.7913 123.534 40.8173C123.534 41.8433 123.862 42.7054 124.515 43.3854C125.167 44.0623 125.996 44.4023 127.001 44.4023C128.006 44.4023 128.81 44.0623 129.472 43.3793C130.133 42.6963 130.467 41.8433 130.467 40.8204V40.8143Z" fill="white"/>
<path d="M140.328 36.003H141.879V45.8199H141.354L135.474 39.1205V45.659H133.923V35.8421H134.463L140.328 42.5112V36.003Z" fill="white"/>
</svg>
