<svg id="Слой_1" data-name="Слой 1" xmlns="http://www.w3.org/2000/svg" viewBox="0 0 20.15 20.06"><defs><style>.cls-1{fill:#e1ce7a;}.cls-1,.cls-2,.cls-3{fill-rule:evenodd;}.cls-2{fill:#10c0e7;}.cls-3{fill:#185c55;}</style></defs><title>logo_final</title><path class="cls-1" d="M10,10.46a5.42,5.42,0,0,0-1.22,2.7l3.05-.26L10,10.46Zm3.14-1.57a4.51,4.51,0,0,0-2.71,1.22l2.36,1.83.35-3.06ZM8.48,13.16a4.92,4.92,0,0,1,1.31-2.88L8.57,8.71l1.57,1.22a5.14,5.14,0,0,1,3-1.3l.52-5a10,10,0,0,0-10,9.94l4.88-.43Z" transform="translate(-3.59 -3.65)"/><path class="cls-2" d="M10,16.91A5.5,5.5,0,0,1,8.75,14.2l3.05.35L10,16.91Zm3.13,1.57a4.56,4.56,0,0,1-2.7-1.22l2.36-1.83.34,3.05ZM8.48,14.2a4.87,4.87,0,0,0,1.31,2.88L8.65,18.56l1.49-1.13a5.12,5.12,0,0,0,3,1.31l.52,5a10,10,0,0,1-10-9.94l4.89.43Z" transform="translate(-3.59 -3.65)"/><path class="cls-3" d="M17.29,16.91a5.5,5.5,0,0,0,1.22-2.71l-3.05.27,1.83,2.44Zm-3.14,1.57a4.57,4.57,0,0,0,2.71-1.22L14.5,15.43l-.35,3.05Zm4.63-4.28a4.87,4.87,0,0,1-1.31,2.88l1.22,1.57-1.57-1.13a5.14,5.14,0,0,1-3,1.3l-.44,4.89a10.14,10.14,0,0,0,10-10l-5,.52Z" transform="translate(-3.59 -3.65)"/></svg>