<?xml version="1.0" standalone="no"?>
<!DOCTYPE svg PUBLIC "-//W3C//DTD SVG 20010904//EN"
 "http://www.w3.org/TR/2001/REC-SVG-20010904/DTD/svg10.dtd">
<svg version="1.0" xmlns="http://www.w3.org/2000/svg"
 width="700.000000pt" height="700.000000pt" viewBox="0 0 700.000000 700.000000"
 preserveAspectRatio="xMidYMid meet">
<metadata>
Created by potrace 1.14, written by Peter Selinger 2001-2017
</metadata>
<g transform="translate(0.000000,700.000000) scale(0.100000,-0.100000)"
fill="#000000" stroke="none">
<path d="M3095 6984 c-179 -23 -249 -36 -394 -70 -109 -26 -322 -88 -356 -104
-11 -4 -56 -22 -100 -38 -44 -17 -109 -44 -145 -60 -157 -70 -186 -85 -409
-214 -85 -49 -329 -224 -415 -298 -268 -229 -483 -469 -663 -740 -139 -208
-259 -436 -343 -655 -24 -60 -46 -119 -51 -130 -22 -55 -99 -327 -114 -406
-21 -108 -45 -243 -51 -289 -3 -30 -8 -66 -10 -80 -5 -33 -17 -241 -18 -305
l-1 -50 45 1 c50 1 246 15 270 19 8 1 51 6 95 9 44 4 96 9 115 11 19 2 71 7
115 10 44 3 98 8 120 10 22 2 72 7 110 10 39 4 86 8 105 10 19 2 73 7 120 10
47 4 99 8 115 10 17 2 68 6 115 10 47 3 96 8 110 10 24 4 170 17 220 19 20 1
25 6 25 26 1 53 18 148 46 250 66 247 180 460 375 697 l26 32 -64 83 c-35 46
-95 124 -133 173 -38 50 -71 92 -74 95 -12 10 -131 169 -131 174 0 5 175 -130
449 -346 72 -57 74 -58 96 -40 149 118 229 172 351 238 135 73 396 161 533
179 20 3 59 8 86 11 28 4 51 7 51 8 2 1 10 73 19 166 7 73 15 147 20 190 2 19
7 61 10 93 3 31 7 83 10 115 3 31 8 73 10 92 2 19 7 60 10 90 3 30 7 71 10 90
2 19 7 67 11 105 3 39 7 81 9 95 12 114 17 160 20 195 2 22 6 63 9 90 3 28 8
75 11 105 3 30 8 69 10 85 2 17 6 64 10 105 4 41 8 85 10 98 l4 23 -152 -2
c-84 -2 -197 -8 -252 -15z"/>
<path d="M3141 5144 c-273 -57 -527 -184 -719 -360 l-45 -41 39 -29 c21 -16
192 -148 379 -294 187 -146 355 -276 373 -288 l32 -23 1 28 c0 15 2 35 4 43 1
8 5 44 9 80 4 36 8 79 10 95 4 29 12 105 22 195 3 25 9 79 14 120 5 41 12 100
15 130 5 52 13 115 20 170 2 14 7 57 10 95 4 39 9 78 12 88 4 15 -1 17 -33 15
-20 -1 -85 -12 -143 -24z"/>
<path d="M2166 4546 c-114 -152 -207 -322 -271 -500 -45 -126 -100 -352 -86
-360 3 -1 17 -2 31 -1 14 1 66 5 115 9 50 4 108 9 130 11 22 2 72 7 110 10 74
6 147 12 230 20 58 5 155 13 240 20 102 8 190 17 192 19 2 2 -483 656 -534
721 -4 6 -27 36 -51 68 -23 31 -44 57 -46 57 -3 0 -29 -34 -60 -74z"/>
<path d="M6927 3484 c-1 -1 -38 -5 -82 -8 -44 -4 -91 -9 -105 -11 -14 -2 -52
-6 -85 -10 -33 -3 -76 -8 -95 -10 -19 -2 -62 -7 -95 -10 -33 -3 -80 -8 -105
-10 -25 -3 -66 -7 -90 -10 -25 -2 -72 -7 -105 -11 -81 -9 -97 -10 -190 -19
-44 -4 -87 -9 -95 -10 -8 -2 -44 -6 -80 -9 -36 -4 -81 -9 -100 -11 -19 -2 -64
-7 -100 -10 -109 -11 -143 -14 -205 -21 -33 -4 -77 -8 -97 -8 -21 0 -34 -2
-29 -6 19 -11 -35 -262 -87 -410 -25 -72 -138 -305 -161 -332 -6 -7 -33 -44
-60 -83 -26 -38 -69 -93 -94 -121 l-46 -50 51 -65 c46 -59 111 -143 261 -338
89 -115 102 -135 85 -125 -8 5 -128 92 -267 193 -139 101 -256 179 -260 174
-11 -17 -145 -119 -219 -167 -150 -99 -362 -190 -545 -235 -89 -22 -108 -25
-209 -37 -64 -8 -62 -2 -73 -149 -8 -106 -16 -197 -20 -225 -2 -14 -7 -65 -10
-115 -3 -49 -8 -101 -10 -115 -2 -14 -7 -63 -10 -110 -3 -47 -8 -101 -10 -120
-2 -19 -7 -66 -10 -105 -3 -38 -7 -88 -10 -110 -4 -39 -10 -105 -20 -228 -3
-34 -8 -84 -11 -112 -12 -127 -26 -280 -27 -302 0 -7 -4 -13 -9 -13 -4 0 -8
17 -9 38 0 20 -2 53 -4 72 -3 39 -23 225 -30 280 -2 19 -7 67 -11 105 -3 39
-7 81 -9 95 -1 14 -6 57 -9 95 -4 39 -9 88 -11 110 -7 56 -15 134 -20 175 -3
19 -7 62 -10 95 -3 33 -8 85 -11 115 -3 30 -7 69 -9 85 -2 28 -9 98 -21 210
-3 28 -7 61 -9 75 -2 14 -6 56 -10 95 -4 38 -12 73 -17 76 -6 4 -40 10 -76 14
-159 17 -363 80 -537 165 -100 49 -266 148 -285 169 -3 3 -27 24 -55 46 -27
22 -56 45 -63 52 -16 16 -4 24 -288 -193 -116 -89 -217 -165 -224 -169 -17
-11 -23 -18 193 263 l179 233 -25 32 c-14 18 -40 48 -57 67 -42 48 -131 181
-175 264 -102 190 -185 461 -189 616 -1 23 -5 25 -46 26 -25 1 -76 4 -115 8
-107 11 -161 16 -234 22 -36 3 -84 7 -106 9 -22 2 -78 6 -125 10 -47 4 -103 8
-125 11 -22 2 -69 6 -105 9 -36 3 -83 8 -105 10 -22 2 -74 7 -115 10 -41 3
-93 8 -115 10 -22 2 -78 7 -125 10 -47 4 -96 8 -108 10 -26 4 -178 17 -227 19
l-30 1 1 -60 c3 -178 18 -326 60 -575 25 -153 107 -436 180 -623 94 -239 284
-589 415 -762 280 -369 556 -635 898 -864 399 -268 912 -470 1366 -536 22 -4
54 -9 70 -11 108 -19 202 -23 450 -19 154 2 294 6 310 9 17 2 59 6 95 10 36 3
76 8 90 11 14 3 45 8 69 11 25 3 47 7 51 9 3 2 26 6 50 10 150 22 510 131 668
201 29 13 55 24 57 24 3 0 53 23 111 51 536 255 1012 656 1357 1142 193 272
373 623 471 919 59 178 123 444 142 583 3 28 8 58 10 69 2 10 6 44 9 75 3 31
8 72 10 91 3 19 7 88 10 152 l6 118 -26 -2 c-14 -1 -27 -3 -28 -4z"/>
<path d="M1807 3245 c31 -167 100 -360 186 -525 70 -134 226 -356 239 -340 5
5 114 149 368 485 79 105 165 218 192 251 54 69 58 84 26 85 -13 0 -30 2 -38
3 -8 2 -42 6 -75 10 -33 4 -73 8 -90 10 -16 3 -57 7 -90 10 -103 11 -149 16
-180 21 -16 2 -57 7 -90 10 -33 3 -71 8 -85 10 -14 2 -52 7 -85 10 -33 4 -71
8 -85 10 -14 2 -54 6 -90 10 -36 4 -77 8 -91 11 l-27 4 15 -75z"/>
<path d="M5128 3315 c-2 -2 -42 -6 -90 -10 -49 -3 -102 -8 -120 -11 -18 -2
-69 -6 -115 -9 -45 -3 -90 -8 -100 -9 -10 -2 -65 -7 -123 -11 -58 -4 -112 -9
-120 -10 -8 -2 -51 -6 -95 -10 -44 -3 -96 -8 -115 -10 -19 -2 -54 -5 -77 -6
-48 -3 -50 -6 -28 -34 9 -11 34 -45 56 -75 23 -30 50 -66 60 -80 11 -14 125
-167 255 -340 129 -173 239 -315 245 -315 16 0 124 151 188 264 58 102 145
291 134 291 -3 0 -1 6 5 13 20 25 88 288 87 337 0 19 -6 25 -22 26 -12 1 -24
0 -25 -1z"/>
<path d="M3789 2877 c0 -6 -2 -21 -4 -32 -2 -11 -7 -49 -10 -85 -3 -36 -7 -76
-10 -90 -2 -14 -7 -52 -10 -85 -3 -33 -9 -94 -15 -135 -12 -100 -19 -155 -25
-215 -3 -27 -7 -68 -10 -90 -2 -22 -9 -80 -15 -130 -5 -49 -12 -112 -16 -139
l-5 -49 63 7 c94 9 257 51 372 96 158 62 304 150 444 267 l62 52 -77 61 c-43
34 -85 67 -93 73 -298 237 -650 504 -651 494z"/>
<path d="M3168 2872 c-1 -4 -109 -90 -238 -190 -129 -100 -268 -208 -309 -240
-41 -31 -79 -61 -85 -67 -6 -5 -40 -32 -76 -59 -36 -27 -69 -53 -73 -57 -11
-9 38 -56 128 -123 61 -45 91 -65 190 -123 67 -40 172 -85 270 -116 68 -22 97
-29 142 -39 5 -1 35 -7 68 -14 33 -7 76 -13 96 -14 l36 0 -7 48 c-5 26 -11 76
-14 112 -4 36 -9 79 -11 95 -2 17 -6 59 -10 95 -4 36 -8 76 -10 89 -3 13 -7
58 -10 100 -4 42 -8 83 -10 91 -3 8 -7 40 -10 70 -2 30 -7 75 -10 100 -3 25
-7 63 -9 85 -15 147 -19 165 -31 165 -7 0 -15 -4 -17 -8z"/>
</g>
</svg>
